<?xml version="1.0" encoding="utf-8"?>
<svg width="456.5px" height="255px" viewBox="0 0 456.5 255" version="1.1" xmlns:xlink="http://www.w3.org/1999/xlink" xmlns="http://www.w3.org/2000/svg">
  <g id="PreFliX">
    <g id="PreFl-i-X" fill="#FFFFFF">
      <path d="M75.222 72.324Q75.222 80.01 71.694 86.373Q68.166 92.736 60.858 96.642Q53.55 100.548 42.714 100.548L29.358 100.548L29.358 132.3L7.812 132.3L7.812 43.848L42.714 43.848Q53.298 43.848 60.606 47.502Q67.914 51.156 71.568 57.582Q75.222 64.008 75.222 72.324ZM41.076 83.412Q47.25 83.412 50.274 80.514Q53.298 77.616 53.298 72.324Q53.298 67.032 50.274 64.134Q47.25 61.236 41.076 61.236L29.358 61.236L29.358 83.412L41.076 83.412ZM107.982 73.71Q111.762 67.914 117.432 64.575Q123.102 61.236 130.032 61.236L130.032 84.042L124.11 84.042Q116.046 84.042 112.014 87.507Q107.982 90.972 107.982 99.666L107.982 132.3L86.436 132.3L86.436 61.992L107.982 61.992L107.982 73.71ZM206.64 96.012Q206.64 99.036 206.262 102.312L157.5 102.312Q158.004 108.864 161.721 112.329Q165.438 115.794 170.856 115.794Q178.92 115.794 182.07 108.99L205.002 108.99Q203.238 115.92 198.639 121.464Q194.04 127.008 187.11 130.158Q180.18 133.308 171.612 133.308Q161.28 133.308 153.216 128.898Q145.152 124.488 140.616 116.298Q136.08 108.108 136.08 97.146Q136.08 86.184 140.553 77.994Q145.026 69.804 153.09 65.394Q161.154 60.984 171.612 60.984Q181.818 60.984 189.756 65.268Q197.694 69.552 202.167 77.49Q206.64 85.428 206.64 96.012ZM184.59 90.342Q184.59 84.798 180.81 81.522Q177.03 78.246 171.36 78.246Q165.942 78.246 162.225 81.396Q158.508 84.546 157.626 90.342L184.59 90.342ZM275.562 43.848L275.562 61.11L239.526 61.11L239.526 79.758L266.49 79.758L266.49 96.516L239.526 96.516L239.526 132.3L217.98 132.3L217.98 43.848L275.562 43.848ZM308.448 39.06L308.448 132.3L286.902 132.3L286.902 39.06L308.448 39.06Z" />
    </g>
    <g transform="translate(316.26, 0)" id="PreFl-i-X" fill="#FF0000">
      <path d="M25.16 73.78Q17.51 73.78 12.665 69.275Q7.82 64.77 7.82 58.14Q7.82 51.34 12.665 46.835Q17.51 42.33 25.16 42.33Q32.64 42.33 37.485 46.835Q42.33 51.34 42.33 58.14Q42.33 64.77 37.485 69.275Q32.64 73.78 25.16 73.78ZM39.61 83.64L39.61 178.5L10.54 178.5L10.54 83.64L39.61 83.64Z" />
    </g>
    <g transform="translate(366.41, 0)" id="PreFl-i-X" fill="#FFFFFF">
      <path d="M61.992 132.3L43.974 105.21L28.098 132.3L3.654 132.3L32.004 87.318L3.024 43.848L28.098 43.848L45.864 70.56L61.488 43.848L85.932 43.848L57.834 88.452L87.066 132.3L61.992 132.3Z" />
    </g>
  </g>
</svg>